<svg width="34" height="34" viewBox="0 0 34 34" fill="none" xmlns="http://www.w3.org/2000/svg">
<path d="M33.9261 10.0891L29.9717 22.5435C29.6761 23.4304 28.9 24.0217 27.9761 24.0217H12.713C11.8261 24.0217 10.9761 23.4674 10.6804 22.6543L4.8413 7.02174H1.47826C0.665217 7.02174 0 6.35652 0 5.54348C0 4.73043 0.665217 4.06522 1.47826 4.06522H5.87609C6.50435 4.06522 7.0587 4.47174 7.28044 5.06304L13.3043 21.0652H27.3478L30.4891 11.087H13.0826C12.2696 11.087 11.6043 10.4217 11.6043 9.60869C11.6043 8.79565 12.2696 8.13043 13.0826 8.13043H32.5217C33.0022 8.13043 33.4457 8.38913 33.7043 8.75869C34 9.12826 34.0739 9.64565 33.9261 10.0891ZM13.4522 25.9804C12.8239 25.9804 12.1957 26.2391 11.7522 26.6826C11.3087 27.1261 11.05 27.7543 11.05 28.3826C11.05 29.0109 11.3087 29.6391 11.7522 30.0826C12.1957 30.5261 12.8239 30.7848 13.4522 30.7848C14.0804 30.7848 14.7087 30.5261 15.1522 30.0826C15.5957 29.6391 15.8543 29.0109 15.8543 28.3826C15.8543 27.7543 15.5957 27.1261 15.1522 26.6826C14.7087 26.2391 14.0804 25.9804 13.4522 25.9804ZM26.7196 25.9804C26.0913 25.9804 25.463 26.2391 25.0196 26.6826C24.5761 27.1261 24.3174 27.7543 24.3174 28.3826C24.3174 29.0109 24.5761 29.6391 25.0196 30.0826C25.463 30.5261 26.0913 30.7848 26.7196 30.7848C27.3478 30.7848 27.9761 30.5261 28.4196 30.0826C28.863 29.6391 29.1217 29.0109 29.1217 28.3826C29.1217 27.7543 28.863 27.1261 28.4196 26.6826C27.9761 26.2391 27.3478 25.9804 26.7196 25.9804Z" fill="black"/>
</svg>
