<svg width="34" height="35" viewBox="0 0 34 35" fill="none" xmlns="http://www.w3.org/2000/svg">
<path d="M33.4414 30.7868L27.0213 24.38C29.0927 21.7387 30.2167 18.4771 30.2125 15.1194C30.2125 12.129 29.3265 9.20586 27.6666 6.71949C26.0067 4.23313 23.6475 2.29525 20.8872 1.1509C18.1269 0.00655093 15.0895 -0.292863 12.1592 0.290521C9.22884 0.873904 6.53717 2.31388 4.42452 4.42836C2.31188 6.54284 0.873147 9.23685 0.290269 12.1697C-0.292609 15.1026 0.00654525 18.1426 1.1499 20.9053C2.29326 23.668 4.22946 26.0293 6.71367 27.6906C9.19788 29.352 12.1185 30.2387 15.1062 30.2387C18.4611 30.2429 21.7199 29.1179 24.3588 27.0447L30.7601 33.4705C30.9356 33.6476 31.1445 33.7882 31.3746 33.8841C31.6047 33.9801 31.8515 34.0295 32.1008 34.0295C32.35 34.0295 32.5969 33.9801 32.827 33.8841C33.0571 33.7882 33.2659 33.6476 33.4414 33.4705C33.6184 33.2948 33.7589 33.0857 33.8548 32.8554C33.9506 32.6251 34 32.3781 34 32.1286C34 31.8791 33.9506 31.6321 33.8548 31.4018C33.7589 31.1715 33.6184 30.9625 33.4414 30.7868ZM3.77657 15.1194C3.77657 12.8766 4.44104 10.6842 5.68596 8.81946C6.93088 6.95469 8.70034 5.50127 10.7706 4.64301C12.8408 3.78475 15.1188 3.56019 17.3166 3.99773C19.5143 4.43527 21.5331 5.51525 23.1175 7.10111C24.702 8.68697 25.7811 10.7075 26.2182 12.9071C26.6554 15.1068 26.431 17.3868 25.5735 19.4588C24.716 21.5308 23.2638 23.3018 21.4007 24.5478C19.5375 25.7938 17.347 26.4589 15.1062 26.4589C12.1014 26.4589 9.21968 25.2642 7.09495 23.1376C4.97023 21.011 3.77657 18.1268 3.77657 15.1194Z" fill="black"/>
</svg>
